<svg width="99" height="99" viewBox="0 0 99 99" fill="none" xmlns="http://www.w3.org/2000/svg">
<g filter="url(#filter0_d_223_265)">
<path d="M49.5 82.5C49.5 82.5 12.375 61.8232 12.375 37.0109C12.375 12.1985 41.25 10.1309 49.5 29.5441C57.75 10.1309 86.625 12.1985 86.625 37.0109C86.625 61.8232 49.5 82.5 49.5 82.5Z" fill="#CF0303"/>
<path d="M49.5 82.5L47.5537 85.9946C48.7637 86.6685 50.2363 86.6685 51.4463 85.9946L49.5 82.5ZM49.5 29.5441L45.8186 31.1086C46.4462 32.5853 47.8955 33.5441 49.5 33.5441C51.1045 33.5441 52.5538 32.5853 53.1814 31.1086L49.5 29.5441ZM8.375 37.0109C8.375 51.2801 18.8975 63.6887 28.2763 72.0464C33.0931 76.3387 37.8913 79.811 41.4766 82.2072C43.2731 83.4079 44.7749 84.3449 45.835 84.986C46.3653 85.3066 46.7858 85.5537 47.0782 85.723C47.2244 85.8077 47.3387 85.873 47.4187 85.9184C47.4587 85.9411 47.4901 85.9589 47.5127 85.9716C47.524 85.9779 47.5331 85.983 47.5399 85.9869C47.5434 85.9888 47.5462 85.9904 47.5485 85.9917C47.5497 85.9923 47.551 85.993 47.5515 85.9934C47.5527 85.994 47.5537 85.9946 49.5 82.5C51.4463 79.0054 51.447 79.0058 51.4476 79.0062C51.4476 79.0062 51.4481 79.0064 51.4481 79.0064C51.4481 79.0065 51.4476 79.0062 51.4465 79.0056C51.4444 79.0044 51.44 79.0019 51.4335 78.9982C51.4204 78.9909 51.3986 78.9786 51.3683 78.9614C51.3079 78.9271 51.2136 78.8733 51.0879 78.8004C50.8365 78.6548 50.4594 78.4334 49.9746 78.1402C49.0044 77.5536 47.6058 76.6814 45.9219 75.5559C42.5462 73.2999 38.0632 70.0522 33.5987 66.0738C24.415 57.89 16.375 47.5541 16.375 37.0109H8.375ZM53.1814 27.9796C48.3315 16.5673 37.281 11.2881 27.2718 12.734C22.2493 13.4596 17.4667 15.886 13.9514 20.0754C10.4252 24.2778 8.375 30.0102 8.375 37.0109H16.375C16.375 31.6055 17.9342 27.7747 20.0798 25.2177C22.2364 22.6475 25.1882 21.118 28.4157 20.6518C34.9065 19.7141 42.4185 23.1077 45.8186 31.1086L53.1814 27.9796ZM82.625 37.0109C82.625 47.5541 74.585 57.89 65.4013 66.0738C60.9368 70.0522 56.4538 73.2999 53.0781 75.5559C51.3942 76.6814 49.9956 77.5536 49.0254 78.1402C48.5406 78.4334 48.1635 78.6548 47.9121 78.8004C47.7864 78.8733 47.6921 78.9271 47.6317 78.9614C47.6014 78.9786 47.5796 78.9909 47.5665 78.9982C47.56 79.0019 47.5556 79.0044 47.5535 79.0056C47.5524 79.0062 47.5519 79.0065 47.5519 79.0064C47.5519 79.0064 47.5524 79.0062 47.5524 79.0062C47.553 79.0058 47.5537 79.0054 49.5 82.5C51.4463 85.9946 51.4473 85.994 51.4485 85.9934C51.449 85.993 51.4503 85.9923 51.4515 85.9917C51.4538 85.9904 51.4566 85.9888 51.4601 85.9869C51.4669 85.983 51.476 85.9779 51.4873 85.9716C51.5099 85.9589 51.5413 85.9411 51.5813 85.9184C51.6613 85.873 51.7756 85.8077 51.9218 85.723C52.2142 85.5537 52.6347 85.3066 53.165 84.986C54.2251 84.3449 55.7269 83.4079 57.5234 82.2072C61.1087 79.811 65.9069 76.3387 70.7237 72.0464C80.1025 63.6887 90.625 51.2801 90.625 37.0109H82.625ZM53.1814 31.1086C56.5815 23.1077 64.0935 19.7141 70.5843 20.6518C73.8118 21.118 76.7636 22.6475 78.9202 25.2177C81.0658 27.7747 82.625 31.6055 82.625 37.0109H90.625C90.625 30.0102 88.5748 24.2778 85.0486 20.0754C81.5333 15.886 76.7507 13.4596 71.7282 12.734C61.719 11.2881 50.6685 16.5673 45.8186 27.9796L53.1814 31.1086Z" fill="#CF0303"/>
</g>
<defs>
<filter id="filter0_d_223_265" x="-4" y="0" width="107" height="107" filterUnits="userSpaceOnUse" color-interpolation-filters="sRGB">
<feFlood flood-opacity="0" result="BackgroundImageFix"/>
<feColorMatrix in="SourceAlpha" type="matrix" values="0 0 0 0 0 0 0 0 0 0 0 0 0 0 0 0 0 0 127 0" result="hardAlpha"/>
<feOffset dy="4"/>
<feGaussianBlur stdDeviation="2"/>
<feComposite in2="hardAlpha" operator="out"/>
<feColorMatrix type="matrix" values="0 0 0 0 0 0 0 0 0 0 0 0 0 0 0 0 0 0 0.25 0"/>
<feBlend mode="normal" in2="BackgroundImageFix" result="effect1_dropShadow_223_265"/>
<feBlend mode="normal" in="SourceGraphic" in2="effect1_dropShadow_223_265" result="shape"/>
</filter>
</defs>
</svg>
