<svg width="633" height="571" viewBox="0 0 633 571" fill="none" xmlns="http://www.w3.org/2000/svg">
<g clip-path="url(#clip0_3_5)">
<path d="M316.816 7.14507C145.343 7.14507 6.33664 163.885 6.33664 357.232H316.816V7.14507Z" fill="#FBF1E2"/>
<path d="M538.312 267.924C507.028 248.8 467.427 261.861 441.712 250.771C409.926 234.618 358.853 231.635 336.37 245.892C336.37 245.892 336.402 256.451 336.667 267.924H316.82V7.14507C460.92 7.14507 582.084 117.838 617.101 267.924H538.312Z" fill="#EDF3F4"/>
<path d="M626.203 327.709C626.924 337.443 627.289 347.284 627.297 357.232H599.104C586.869 353.254 571.55 349.359 552.357 345.852C481.474 332.901 539.018 323.692 626.203 327.709Z" fill="#8EBCBB"/>
<path d="M590.547 292.218C591.998 280.746 551.219 273.11 538.312 267.926H617.098C620.889 284.178 623.634 300.717 625.31 317.416C594.788 315.449 566.738 314.288 544.815 313.642C571.074 306.257 589.719 298.757 590.547 292.218Z" fill="#8EBCBB"/>
<path d="M338.663 296.305L364.339 350.088C364.339 350.088 394.136 345.435 432.1 338.408C431.022 345.909 438.609 352.876 454.7 355.731C457.482 356.224 460.144 356.726 462.714 357.232H316.817V267.924H336.664C336.956 280.642 337.531 294.485 338.663 296.305Z" fill="#8EBCBB"/>
<path d="M590.547 292.218C589.719 298.759 571.074 306.258 544.815 313.642C523.016 313 507.274 312.869 501.204 312.965C456.608 313.674 433.785 326.695 432.1 338.408C394.136 345.435 364.339 350.088 364.339 350.088L338.663 296.305C336.779 295.058 336.287 248.526 336.37 245.892C358.995 231.533 410.306 234.759 441.712 250.772C467.423 261.861 507.034 248.802 538.312 267.925C551.219 273.108 591.998 280.745 590.547 292.218Z" fill="#D6CEC2"/>
<path d="M432.1 338.408C433.785 326.693 456.608 313.672 501.204 312.965C507.274 312.869 523.016 313 544.815 313.642C566.738 314.288 594.785 315.449 625.309 317.416C625.652 320.83 625.95 324.262 626.203 327.71C539.02 323.693 481.474 332.902 552.357 345.854C571.548 349.36 586.869 353.256 599.104 357.234H462.714C460.144 356.73 457.482 356.226 454.7 355.733C438.609 352.876 431.022 345.909 432.1 338.408Z" fill="#F3DFC1"/>
<path d="M57.0273 357.232V486.625C41.039 470.239 28.2692 450.261 19.539 427.976C10.8088 405.692 6.31164 381.594 6.33665 357.232H57.0273Z" fill="#FCE2BA"/>
<path d="M107.718 357.232V521.448C88.9918 513.625 71.7802 501.801 57.0273 486.625V357.232H107.718Z" fill="#FBF1E2"/>
<path d="M158.409 532.231C141.096 531.859 123.961 528.214 107.718 521.448V357.232H158.409V532.231Z" fill="#FCE2BA"/>
<path d="M209.099 357.232V523.913C192.728 529.836 175.598 532.648 158.409 532.234V357.232H209.099Z" fill="#FBF1E2"/>
<path d="M259.79 357.232V492.78C244.772 506.646 227.577 517.206 209.099 523.91V357.228L259.79 357.232Z" fill="#FCE2BA"/>
<path d="M310.48 357.232V442.441C298.857 449.618 288.497 459.134 279.913 470.518C273.814 478.608 267.079 486.059 259.79 492.78V357.232H310.48Z" fill="#FBF1E2"/>
<path d="M361.171 357.232V427.279C343.434 427.625 326.037 432.828 310.481 442.441V357.232H361.171Z" fill="#FBF1E2"/>
<path d="M411.862 357.232V427.25H363.092C362.451 427.25 361.811 427.267 361.171 427.279V357.232H411.862Z" fill="#FCE2BA"/>
<path d="M411.862 357.232H462.552V427.249H411.862V357.232Z" fill="#FBF1E2"/>
<path d="M462.553 357.232H513.243V427.249H462.553V357.232Z" fill="#FCE2BA"/>
<path d="M513.243 357.232H563.934V427.249H513.243V357.232Z" fill="#FCE2BA"/>
<path d="M614.625 357.232V399.616C608.702 408.397 601.023 415.476 592.214 420.278C583.406 425.079 573.716 427.467 563.934 427.246V357.232H614.625Z" fill="#FBF1E2"/>
<path d="M627.297 357.232C627.317 372.546 622.863 387.441 614.624 399.616V357.232H627.297Z" fill="#FCE2BA"/>
<path d="M0 0H69.7V88.594H0V0Z" fill="#E9E5DF"/>
<path d="M17.1083 13.7771V66.4451H38.6504V57.8717H46.4013C49.8589 47.2276 53.8275 35.6791 57.2844 25.0442C57.2844 25.0442 43.8246 13.7771 17.1083 13.7771Z" fill="#B4C6D8"/>
<path d="M17.1082 57.8717H39.2854V66.4451H17.1082V57.8717Z" fill="#74899F"/>
<path d="M17.123 47.8691V51.4412H48.7634L49.9504 47.8691H17.123Z" fill="#3B444F"/>
<path d="M17.123 38.6727V42.1532H51.8077L53.0022 38.6727H17.123Z" fill="#3B444F"/>
<path d="M17.1229 29.2931V32.8652H54.8594L56.054 29.2931H17.1229Z" fill="#3B444F"/>
<path d="M17.1082 62.1584H39.2854V66.4451H17.1082V62.1584Z" fill="#3B444F"/>
<path d="M17.1083 66.4451H54.4924V75.0185H17.1083V66.4451Z" fill="white"/>
<path d="M-3.05176e-05 350.088H319.985V357.233H-3.05176e-05V350.088Z" fill="white"/>
<path d="M-3.05176e-05 235.773H319.985V242.919H-3.05176e-05V235.773Z" fill="white"/>
<path d="M101.381 117.886H319.985V125.031H101.381V117.886Z" fill="white"/>
<path d="M101.381 0H319.985V7.14506H101.381V0Z" fill="white"/>
<path d="M313.648 357.232V0L319.985 0V357.232H313.648Z" fill="white"/>
<path d="M209.098 357.232L209.098 1.52588e-05L215.435 1.52588e-05L215.435 357.232H209.098Z" fill="white"/>
<path d="M101.381 357.232L101.381 0L107.718 0L107.718 357.232H101.381Z" fill="white"/>
<path d="M0 357.232L0 235.773H6.33673L6.33673 357.232H0Z" fill="white"/>
<path d="M223.673 117.886H214.168V35.7228H223.673V117.886Z" fill="#C66F53"/>
<path d="M243.315 117.887H228.108V60.7301H243.315V117.887Z" fill="white"/>
<path d="M231.276 117.887H223.672V50.7275H231.276V117.887Z" fill="#F5CEA9"/>
<path d="M198.328 168.614H209.099V235.773H198.328V168.614Z" fill="#5998C5"/>
<path d="M178.052 178.616H193.259V235.773H178.052V178.616Z" fill="#DBE7E9"/>
<path d="M191.357 168.614H199.594V235.773H191.357V168.614Z" fill="#7CB8DD"/>
<path d="M171.714 177.457L178.004 178.328L171.826 235.059L165.537 234.188L171.714 177.457Z" fill="#D3B291"/>
<path d="M167.345 190.032L171.081 190.55L166.236 235.043L162.5 234.526L167.345 190.032Z" fill="#F5987E"/>
<path d="M287.67 117.886H243.315V110.741H287.67V117.886Z" fill="#3B444F"/>
<path d="M287.67 110.742H243.315V104.312H287.67V110.742Z" fill="#7B9370"/>
<path d="M153.973 213.546H119.757V198.542H153.973V213.546Z" fill="#0D2135"/>
<path d="M146.37 213.625H127.36V206.479H146.37V213.625Z" fill="#697171"/>
<path d="M129.93 145.751H143.307L149.995 172.146L143.307 198.542H129.93L123.241 172.146L129.93 145.751Z" fill="#EDB665"/>
<path d="M143.307 145.751L149.995 172.146L143.307 198.542H143.295L129.967 145.751H143.307Z" fill="#F8C77E"/>
<path d="M18.0351 319.536C18.0351 327.623 20.8843 335.379 25.9559 341.098C31.0275 346.816 37.906 350.029 45.0783 350.029H66.1007C71.3936 350.03 76.5704 348.279 80.9891 344.994C85.4079 341.708 88.8744 337.033 90.9587 331.547C93.0431 326.061 93.6536 320.006 92.7147 314.133C91.7758 308.259 89.3286 302.825 85.6767 298.505C83.2081 295.299 81.5973 291.369 81.0316 287.172C80.466 282.974 80.9686 278.682 82.4812 274.794C88.2683 259.63 78.1224 242.252 63.4108 242.369H47.7675C33.1884 242.099 22.8414 259.828 28.6978 274.794C30.227 278.717 30.7258 283.053 30.1351 287.286C29.5444 291.519 27.889 295.473 25.3652 298.677C20.6483 304.319 18.0255 311.782 18.0351 319.536Z" fill="#DB8A73"/>
<path d="M29.3318 274.701C29.3458 274.733 29.3598 274.774 29.3738 274.807C29.3598 274.774 29.3524 274.733 29.3384 274.701H29.3318Z" fill="#B57865"/>
<path d="M83.1586 274.872C83.1727 274.84 83.1874 274.799 83.2014 274.767H83.194C83.18 274.799 83.1727 274.84 83.1586 274.872Z" fill="#B57865"/>
<path d="M49.423 271.496H62.0957L59.5615 167.185H51.958L49.423 271.496Z" fill="#3B444F"/>
<path d="M46.8887 276.498C46.8887 279.245 47.8566 281.88 49.5795 283.823C51.3025 285.766 53.6394 286.858 56.0761 286.858C68.2639 286.312 68.2602 266.681 56.0761 266.138C53.6395 266.138 51.3028 267.23 49.5798 269.173C47.8569 271.115 46.8889 273.75 46.8887 276.498Z" fill="#0D2135"/>
<path d="M38.6514 312.936H72.8677V319.365H38.6514V312.936Z" fill="#303A45"/>
<path d="M46.8888 119.315L46.926 156.551C48.5371 157.648 49.8553 159.215 50.7411 161.087C51.6269 162.959 52.0474 165.066 51.958 167.185H59.5614C59.4833 165.061 59.9124 162.951 60.8041 161.077C61.6958 159.203 63.0173 157.633 64.6306 156.531L64.5949 119.316L46.8888 119.315Z" fill="#DB8A73"/>
<path d="M51.5602 127.174C51.8537 127.152 52.1481 127.197 52.4254 127.308C52.7027 127.418 52.957 127.592 53.1724 127.818C53.3878 128.044 53.5598 128.317 53.6778 128.621C53.7958 128.925 53.8573 129.253 53.8584 129.584V151.915C53.8374 152.562 53.5945 153.175 53.1809 153.624C52.7673 154.074 52.2151 154.325 51.6406 154.325C51.0661 154.325 50.514 154.074 50.1004 153.624C49.6868 153.175 49.444 152.562 49.4229 151.915V129.584C49.4229 128.945 49.6481 128.332 50.0489 127.88C50.4497 127.428 50.9934 127.174 51.5602 127.174Z" fill="white"/>
<path d="M46.0175 150.039H45.2258C44.7446 150.039 44.3545 149.599 44.3545 149.056V146.734C44.3545 146.192 44.7446 145.752 45.2258 145.752H46.0175C46.4987 145.752 46.8888 146.192 46.8888 146.734V149.056C46.8888 149.599 46.4987 150.039 46.0175 150.039Z" fill="#0D2135"/>
<path d="M53.8635 148.633H49.428V146.49H53.8635V148.633Z" fill="#3B444F"/>
<path d="M46.0175 142.894H45.2258C44.7446 142.894 44.3545 142.455 44.3545 141.912V139.59C44.3545 139.048 44.7446 138.608 45.2258 138.608H46.0175C46.4987 138.608 46.8888 139.048 46.8888 139.59V141.912C46.8888 142.455 46.4987 142.894 46.0175 142.894Z" fill="#0D2135"/>
<path d="M53.8635 141.489H49.428V139.346H53.8635V141.489Z" fill="#3B444F"/>
<path d="M46.0175 135.749H45.2258C44.7446 135.749 44.3545 135.309 44.3545 134.766V132.444C44.3545 131.902 44.7446 131.462 45.2258 131.462H46.0175C46.4987 131.462 46.8888 131.902 46.8888 132.444V134.766C46.8888 135.309 46.4987 135.749 46.0175 135.749Z" fill="#0D2135"/>
<path d="M53.8635 134.344H49.428V132.201H53.8635V134.344Z" fill="#3B444F"/>
<path d="M59.9589 127.174C59.6654 127.152 59.3709 127.197 59.0937 127.308C58.8164 127.419 58.5622 127.592 58.3467 127.818C58.1313 128.044 57.9592 128.317 57.8411 128.621C57.7229 128.925 57.6613 129.253 57.66 129.584V151.915C57.6783 152.564 57.9199 153.18 58.3337 153.632C58.7476 154.084 59.3011 154.337 59.8773 154.337C60.4535 154.337 61.0071 154.084 61.421 153.632C61.8348 153.18 62.0764 152.564 62.0947 151.915V129.584C62.0947 128.945 61.8697 128.333 61.4692 127.881C61.0687 127.429 60.5255 127.175 59.9589 127.174Z" fill="white"/>
<path d="M65.5018 145.751H66.2935C66.7747 145.751 67.1648 146.191 67.1648 146.734V149.055C67.1648 149.598 66.7747 150.038 66.2935 150.038H65.5018C65.0206 150.038 64.6306 149.598 64.6306 149.055V146.734C64.6306 146.191 65.0206 145.751 65.5018 145.751Z" fill="#0D2135"/>
<path d="M57.6602 146.466H62.0957V148.609H57.6602V146.466Z" fill="#3B444F"/>
<path d="M65.5018 138.606H66.2935C66.7747 138.606 67.1648 139.046 67.1648 139.589V141.91C67.1648 142.453 66.7747 142.893 66.2935 142.893H65.5018C65.0206 142.893 64.6306 142.453 64.6306 141.91V139.589C64.6306 139.046 65.0206 138.606 65.5018 138.606Z" fill="#0D2135"/>
<path d="M57.6602 139.321H62.0957V141.464H57.6602V139.321Z" fill="#3B444F"/>
<path d="M65.5018 131.462H66.2935C66.7747 131.462 67.1648 131.902 67.1648 132.444V134.766C67.1648 135.309 66.7747 135.749 66.2935 135.749H65.5018C65.0206 135.749 64.6306 135.309 64.6306 134.766V132.444C64.6306 131.902 65.0206 131.462 65.5018 131.462Z" fill="#0D2135"/>
<path d="M57.6602 132.176H62.0957V134.319H57.6602V132.176Z" fill="#3B444F"/>
<path d="M58.2929 167.185H58.9277V312.936H58.2929V167.185Z" fill="white"/>
<path d="M56.3923 167.185H57.0271V312.936H56.3923V167.185Z" fill="white"/>
<path d="M54.4912 167.185H55.126V312.936H54.4912V167.185Z" fill="white"/>
<path d="M52.5899 167.185H53.2249V312.936H52.5899V167.185Z" fill="white"/>
<path d="M259.79 161.469H281.967V235.773H259.79V161.469Z" fill="#A8BAAC"/>
<path d="M266.126 214.697C266.126 215.401 266.249 216.097 266.488 216.748C266.727 217.398 267.077 217.988 267.518 218.486C267.959 218.983 268.483 219.378 269.06 219.647C269.636 219.917 270.254 220.055 270.879 220.055C277.169 219.81 277.168 209.582 270.879 209.338C269.618 209.338 268.409 209.902 267.518 210.907C266.627 211.912 266.126 213.276 266.126 214.697Z" fill="#6E6558"/>
<path d="M270.879 211.124C270.047 211.138 269.253 211.521 268.669 212.189C268.086 212.858 267.758 213.758 267.758 214.696C267.758 215.635 268.086 216.535 268.669 217.203C269.253 217.872 270.047 218.255 270.879 218.269C271.711 218.255 272.504 217.872 273.088 217.203C273.672 216.535 273.999 215.635 273.999 214.696C273.999 213.758 273.672 212.858 273.088 212.189C272.504 211.521 271.711 211.138 270.879 211.124ZM270.879 209.338C271.503 209.338 272.121 209.476 272.697 209.746C273.274 210.015 273.798 210.41 274.239 210.908C274.68 211.405 275.03 211.996 275.269 212.646C275.508 213.296 275.631 213.993 275.631 214.697C275.413 221.79 266.343 221.788 266.126 214.697C266.126 213.276 266.627 211.912 267.518 210.907C268.409 209.902 269.618 209.338 270.879 209.338Z" fill="white"/>
<path d="M237.613 161.469H259.79V235.773H237.613V161.469Z" fill="#7B9370"/>
<path d="M243.949 214.697C243.949 216.118 244.45 217.481 245.341 218.486C246.232 219.49 247.441 220.055 248.701 220.055C254.992 219.81 254.99 209.582 248.701 209.338C248.077 209.338 247.459 209.476 246.883 209.746C246.306 210.015 245.782 210.41 245.341 210.908C244.9 211.405 244.55 211.996 244.311 212.646C244.072 213.296 243.949 213.993 243.949 214.697Z" fill="#6E6558"/>
<path d="M248.701 211.124C247.87 211.138 247.076 211.521 246.492 212.189C245.908 212.858 245.581 213.758 245.581 214.696C245.581 215.635 245.908 216.535 246.492 217.203C247.076 217.872 247.87 218.255 248.701 218.269C249.533 218.255 250.327 217.872 250.911 217.203C251.494 216.535 251.822 215.635 251.822 214.696C251.822 213.758 251.494 212.858 250.911 212.189C250.327 211.521 249.533 211.138 248.701 211.124ZM248.701 209.338C249.325 209.338 249.943 209.476 250.52 209.746C251.097 210.015 251.621 210.41 252.062 210.908C252.503 211.405 252.853 211.996 253.092 212.646C253.331 213.296 253.453 213.993 253.453 214.697C253.237 221.79 244.165 221.788 243.949 214.697C243.949 213.993 244.072 213.296 244.311 212.646C244.55 211.996 244.9 211.405 245.341 210.908C245.782 210.41 246.306 210.015 246.883 209.746C247.459 209.476 248.077 209.338 248.701 209.338Z" fill="white"/>
<path d="M215.435 161.469H237.613V235.773H215.435V161.469Z" fill="#124A53"/>
<path d="M221.773 214.697C221.773 216.118 222.274 217.481 223.165 218.486C224.056 219.49 225.265 220.055 226.525 220.055C232.817 219.81 232.814 209.582 226.525 209.338C225.901 209.338 225.283 209.476 224.707 209.746C224.13 210.015 223.606 210.41 223.165 210.908C222.724 211.405 222.374 211.996 222.135 212.646C221.896 213.296 221.773 213.993 221.773 214.697Z" fill="#6E6558"/>
<path d="M226.524 211.124C225.692 211.138 224.899 211.521 224.315 212.189C223.731 212.858 223.404 213.758 223.404 214.696C223.404 215.635 223.731 216.535 224.315 217.203C224.899 217.872 225.692 218.255 226.524 218.269C227.356 218.255 228.149 217.872 228.733 217.203C229.317 216.535 229.644 215.635 229.644 214.696C229.644 213.758 229.317 212.858 228.733 212.189C228.149 211.521 227.356 211.138 226.524 211.124ZM226.524 209.338C227.784 209.338 228.993 209.902 229.885 210.907C230.776 211.912 231.277 213.276 231.277 214.697C231.059 221.79 221.988 221.788 221.772 214.697C221.772 213.993 221.895 213.296 222.133 212.646C222.372 211.996 222.722 211.405 223.163 210.908C223.605 210.41 224.129 210.015 224.705 209.746C225.282 209.476 225.9 209.338 226.524 209.338Z" fill="white"/>
<path d="M90.6099 168.614H101.381V235.773H90.6099V168.614Z" fill="#7B9370"/>
<path d="M114.054 297.217H120.391V350.088H114.054V297.217Z" fill="#F8C77E"/>
<path d="M120.392 297.395L126.708 296.815L130.51 349.511L124.194 350.091L120.392 297.395Z" fill="#D6CEC2"/>
<path d="M130.528 311.507H136.865V350.088H130.528V311.507Z" fill="#F5987E"/>
<path d="M107.717 297.217H114.054V350.088H107.717V297.217Z" fill="#5998C5"/>
<path d="M80.472 168.614H91.2434V235.773H80.472V168.614Z" fill="#424435"/>
<path d="M225.574 250.777H313.648V350.088H225.574V250.777Z" fill="#A59384"/>
<path fill-rule="evenodd" clip-rule="evenodd" d="M286.983 301.799V305.443C286.983 306.651 287.409 307.81 288.167 308.664C288.924 309.518 289.952 309.998 291.023 309.998C292.095 309.998 293.123 309.518 293.88 308.664C294.638 307.81 295.064 306.651 295.064 305.443V301.799H311.224V347.354H270.823V301.799H286.983Z" fill="#F5CEA9"/>
<path fill-rule="evenodd" clip-rule="evenodd" d="M243.754 301.799V305.443C243.754 306.651 244.18 307.81 244.938 308.664C245.695 309.518 246.723 309.998 247.794 309.998C248.866 309.998 249.893 309.518 250.651 308.664C251.409 307.81 251.834 306.651 251.834 305.443V301.799H267.994V347.354H227.593V301.799H243.754Z" fill="#F5CEA9"/>
<path fill-rule="evenodd" clip-rule="evenodd" d="M265.571 253.507V257.152C265.571 258.36 265.997 259.518 266.754 260.373C267.512 261.227 268.539 261.707 269.611 261.707C270.682 261.707 271.71 261.227 272.468 260.373C273.225 259.518 273.651 258.36 273.651 257.152V253.507H311.224V299.062H227.594V253.507H265.571Z" fill="#F5CEA9"/>
<path d="M151.972 288.068L203.973 287.844L193.88 245.583L161.779 245.721L151.972 288.068Z" fill="#FCE2BA"/>
<path d="M164.59 326.51L191.613 326.394C201.007 302.784 181.768 299.415 180.343 287.944L175.606 287.964C174.253 299.448 155.037 302.983 164.59 326.51Z" fill="#E16745"/>
<path fill-rule="evenodd" clip-rule="evenodd" d="M150.114 326.51H209.099V350.088H150.114V326.51Z" fill="#A59384"/>
<path fill-rule="evenodd" clip-rule="evenodd" d="M197.677 329.366C195.576 329.366 193.561 330.307 192.074 331.982C190.588 333.657 189.752 335.929 189.751 338.298C190.18 350.149 205.166 350.149 205.595 338.298C205.594 335.93 204.76 333.66 203.275 331.985C201.791 330.31 199.777 329.368 197.677 329.366Z" fill="#EDF3F4"/>
<path fill-rule="evenodd" clip-rule="evenodd" d="M200.782 338.298C200.783 338.087 200.858 337.884 200.991 337.734C201.123 337.585 201.303 337.5 201.491 337.499H203.853C204.033 337.512 204.201 337.602 204.324 337.75C204.447 337.898 204.516 338.093 204.516 338.296C204.516 338.5 204.447 338.695 204.324 338.843C204.201 338.991 204.033 339.081 203.853 339.094H201.491C201.303 339.094 201.123 339.009 200.99 338.859C200.857 338.71 200.782 338.507 200.782 338.295V338.298Z" fill="#0D2135"/>
<path fill-rule="evenodd" clip-rule="evenodd" d="M165.164 346.103C166.999 344.951 168.353 343.024 168.929 340.746C169.505 338.468 169.255 336.025 168.235 333.954C162.75 323.833 149.656 332.053 154.39 342.641C155.413 344.71 157.122 346.237 159.142 346.886C161.162 347.535 163.328 347.254 165.164 346.103Z" fill="#EDF3F4"/>
<path fill-rule="evenodd" clip-rule="evenodd" d="M158.601 339.997C158.691 340.182 158.713 340.4 158.661 340.604C158.61 340.807 158.49 340.979 158.327 341.083L156.262 342.379C156.18 342.43 156.091 342.463 155.998 342.475C155.906 342.487 155.812 342.478 155.723 342.449C155.633 342.42 155.55 342.372 155.477 342.307C155.404 342.242 155.343 342.161 155.298 342.069C155.253 341.978 155.224 341.877 155.213 341.773C155.203 341.668 155.21 341.563 155.236 341.462C155.261 341.361 155.304 341.267 155.362 341.184C155.42 341.102 155.491 341.034 155.573 340.983C156.162 340.612 157.047 340.059 157.636 339.686C157.801 339.585 157.994 339.56 158.175 339.619C158.355 339.677 158.508 339.813 158.601 339.997Z" fill="#0D2135"/>
<path fill-rule="evenodd" clip-rule="evenodd" d="M172.095 335.463C171.429 337.709 171.58 340.162 172.517 342.282C173.453 344.402 175.098 346.017 177.089 346.77C187.191 350.078 191.951 334.053 182.124 329.831C180.132 329.08 177.956 329.25 176.076 330.306C174.195 331.362 172.764 333.217 172.095 335.463Z" fill="#EDF3F4"/>
<path fill-rule="evenodd" clip-rule="evenodd" d="M180.591 334.981C180.413 334.913 180.267 334.768 180.183 334.578C180.1 334.389 180.086 334.17 180.144 333.969C180.359 333.247 180.681 332.166 180.895 331.443C180.924 331.343 180.971 331.251 181.032 331.172C181.093 331.093 181.168 331.028 181.251 330.981C181.335 330.935 181.425 330.907 181.518 330.9C181.611 330.893 181.704 330.906 181.793 330.939C181.881 330.973 181.962 331.026 182.033 331.094C182.103 331.163 182.16 331.247 182.202 331.341C182.243 331.435 182.268 331.538 182.274 331.642C182.281 331.747 182.269 331.852 182.239 331.952L181.489 334.477C181.428 334.677 181.299 334.841 181.131 334.936C180.963 335.03 180.769 335.046 180.591 334.98V334.981Z" fill="#0D2135"/>
<path d="M285.904 94.309H260.922C260.454 94.3095 260.005 94.5194 259.674 94.8928C259.343 95.2661 259.158 95.7722 259.158 96.3V104.312H287.669V96.3C287.669 95.7721 287.484 95.2658 287.153 94.8925C286.822 94.5191 286.373 94.3093 285.904 94.309Z" fill="#9DB3C8"/>
<path d="M252.913 79.3665C253.001 79.2668 253.106 79.1878 253.222 79.1338C253.337 79.0799 253.46 79.0521 253.585 79.0521C253.71 79.0521 253.834 79.0799 253.949 79.1338C254.064 79.1878 254.169 79.2668 254.257 79.3665C280.08 106.161 315.383 66.3183 291.627 37.2284C291.463 37.0244 291.375 36.757 291.381 36.4817C291.387 36.2065 291.487 35.9444 291.66 35.75C291.833 35.5555 292.065 35.4436 292.309 35.4375C292.554 35.4313 292.791 35.5314 292.971 35.7169C310.497 55.361 298.295 89.5303 273.85 90.2012V94.6197H271.637V90.1844C264.583 89.8339 257.901 86.5134 252.912 80.8788C252.735 80.6781 252.635 80.406 252.635 80.1225C252.635 79.8389 252.735 79.567 252.913 79.3665Z" fill="#9DB3C8"/>
<path d="M247.751 58.2756C247.751 50.8015 250.385 43.6337 255.072 38.3488C259.759 33.064 266.116 30.0951 272.745 30.0951C305.899 31.5797 305.889 84.9816 272.745 86.4603C269.462 86.4602 266.212 85.7311 263.18 84.3146C260.147 82.8981 257.392 80.822 255.071 78.2048C252.75 75.5876 250.909 72.4806 249.653 69.0611C248.397 65.6416 247.751 61.9767 247.751 58.2756Z" fill="#7B9370"/>
<path d="M291.359 44.5422C289.9 42.83 288.445 40.908 286.426 40.2345C284.407 39.5611 281.711 40.9281 281.716 43.3028C281.826 44.4335 282.227 45.5031 282.871 46.3795C286.17 51.9225 289.048 57.77 291.473 63.8596C292.159 65.581 292.709 67.8902 291.441 69.1212C288.944 71.3137 286.001 66.8767 283.368 67.8894C282.845 68.1459 282.383 68.5375 282.019 69.0326C281.656 69.5277 281.4 70.1124 281.274 70.7393C280.951 71.9687 280.912 73.2702 280.666 74.5222C279.604 79.94 274.149 83.7019 269.388 82.2987C268.37 81.8904 267.324 81.5792 266.26 81.3683C264.671 81.1164 262.834 82.5087 263.4 84.4173C261.018 83.3354 258.797 81.8456 256.818 80.0005C257.947 77.9541 258.307 75.2788 256.967 73.481C255.523 71.5387 253.453 71.391 252.179 69.3034C249.658 65.1721 250.38 62.2558 252.179 61.4438C255.347 60.0163 269.797 67.0203 269.92 60.0163C269.944 58.687 267.451 56.8682 267.617 55.5507C267.795 54.1325 270.883 52.4556 273.054 52.1625C273.935 52.0685 274.759 51.6293 275.383 50.9214C276.007 50.2135 276.391 49.2815 276.469 48.2873C276.749 43.0022 267.63 44.3684 264.032 40.4638C261.356 37.5609 257.613 37.5021 254.402 39.1328C267.165 23.2926 290.98 29.3897 296.55 49.6795C294.695 48.134 292.959 46.4155 291.359 44.5422Z" fill="#E8F3FF"/>
<path d="M119.757 213.625H153.973V235.773H119.757V213.625Z" fill="#F5CEA9"/>
<path d="M197.693 105.098C197.527 109.801 196.441 113.16 193.965 117.913H143.052C140.267 117.829 140.272 113.529 143.065 113.608H147.519C147.519 113.608 147.246 109.712 150.593 106.067L145.56 103.764C143.86 102.646 144.229 100.026 144.229 100.026C144.229 100.026 146.106 99.8175 146.151 97.0339C146.151 97.0339 145.451 93.4979 147.436 91.8537L148.174 91.266C150.253 89.5865 150.316 87.5066 150.939 84.6146C154.439 86.3184 153.643 88.9198 157.605 90.8285C161.012 92.4718 162.887 99.008 166.839 99.59C170.792 100.172 175.767 96.5905 178.942 96.5905C181.325 96.5905 183.969 96.2244 190.187 99.9124C189.161 97.9357 187.891 96.1335 186.415 94.5601C184.278 92.1921 181.606 89.8502 180.853 86.2512C179.176 79.1591 185.301 72.4641 191.48 74.7565C192.579 75.1544 193.591 75.811 194.448 76.6829C195.306 77.5548 195.989 78.622 196.453 79.814C196.614 80.2694 196.614 80.7764 196.455 81.2323C196.296 81.6883 195.99 82.059 195.597 82.2696C195.205 82.4802 194.757 82.5149 194.343 82.3665C193.928 82.2182 193.58 81.898 193.367 81.4708C193.072 80.8211 192.656 80.2509 192.148 79.7991C191.639 79.3472 191.05 79.0244 190.421 78.8526C187.305 77.9096 184.281 81.433 185.35 84.8439C186.128 87.2018 188.301 88.5285 189.957 90.2608C193.721 93.7036 197.587 99.7571 197.693 105.098Z" fill="#B5776D"/>
<path d="M137.499 111.814C137.499 113.235 136.998 114.598 136.107 115.603C135.215 116.608 134.007 117.173 132.746 117.173C126.456 116.927 126.457 106.699 132.746 106.455C133.37 106.455 133.988 106.594 134.565 106.863C135.141 107.132 135.665 107.527 136.107 108.024C136.548 108.522 136.898 109.113 137.137 109.763C137.376 110.413 137.499 111.11 137.499 111.814Z" fill="#F5987E"/>
<path d="M492.35 154.318C491.848 141.092 503.218 130.762 514.542 133.89C515.859 134.244 517.239 134.167 518.519 133.667C519.799 133.166 520.925 132.264 521.766 131.066C524.214 127.52 527.35 124.651 530.932 122.679C534.515 120.707 538.449 119.685 542.436 119.689C546.993 119.912 552.246 121.704 555.495 116.927C558.707 112.604 562.841 109.274 567.508 107.248C572.175 105.222 577.222 104.567 582.176 105.344C587.129 106.121 591.826 108.306 595.825 111.692C599.824 115.078 602.994 119.555 605.038 124.701C605.871 126.822 607.238 128.621 608.97 129.875C610.701 131.128 612.72 131.782 614.777 131.755C617.325 131.735 619.848 132.323 622.181 133.48C624.513 134.637 626.603 136.336 628.312 138.467C630.021 140.598 631.312 143.113 632.099 145.845C632.886 148.578 633.152 151.468 632.879 154.325H492.353L492.35 154.318Z" fill="white"/>
<path d="M482.819 121.455C482.862 119.559 482.52 117.678 481.819 115.954C481.117 114.23 480.076 112.71 478.774 111.51C477.471 110.31 475.943 109.462 474.305 109.03C472.667 108.599 470.964 108.596 469.325 109.021C468.523 109.237 467.684 109.19 466.905 108.885C466.127 108.58 465.442 108.031 464.931 107.302C463.443 105.143 461.537 103.397 459.358 102.197C457.18 100.997 454.787 100.374 452.362 100.377C449.59 100.512 446.396 101.604 444.42 98.6974C442.468 96.0669 439.954 94.0396 437.115 92.8064C434.277 91.5732 431.206 91.1744 428.193 91.6477C425.18 92.121 422.324 93.4508 419.892 95.512C417.46 97.5731 415.534 100.298 414.293 103.43C413.787 104.72 412.956 105.815 411.903 106.577C410.85 107.34 409.622 107.738 408.371 107.722C406.82 107.71 405.285 108.069 403.866 108.773C402.446 109.478 401.175 110.513 400.136 111.81C399.096 113.108 398.311 114.638 397.833 116.302C397.355 117.965 397.194 119.723 397.361 121.462H482.816L482.819 121.455Z" fill="white"/>
<path d="M479.021 189.332C479.215 186.264 474.81 183.874 470.425 184.595C469.452 184.78 468.453 184.546 467.626 183.94C465.273 182.124 462.469 181.2 459.619 181.302C457.853 181.353 455.821 181.769 454.56 180.661C451.953 178.766 448.9 177.804 445.8 177.902C441.148 177.902 437.147 179.776 435.368 182.464C434.697 183.472 433.233 184.107 431.595 184.099C427.437 184.057 424.098 186.552 424.581 189.333H479.019L479.021 189.332Z" fill="white"/>
<path d="M494.876 486.693H472.007V524.47H498.353L494.876 486.693Z" fill="#61382D"/>
<path d="M531.658 550.259H476.773C474.347 550.259 472.02 549.173 470.305 547.238C468.589 545.304 467.625 542.68 467.625 539.944H540.805C540.805 542.68 539.842 545.303 538.126 547.238C536.411 549.172 534.084 550.259 531.658 550.259Z" fill="#D7A38F"/>
<path d="M467.623 539.943H540.805C540.805 539.943 541.082 533.782 530.668 530.99C518.523 527.753 501.672 522.362 496.877 507.601C491.201 508.212 486.866 513.116 485.728 519.313H472.006L467.623 539.943Z" fill="#F5CEA9"/>
<path d="M489.223 525.191C490.825 516.967 501.665 515.925 502.594 515.759C503.212 515.468 509.837 511.945 514.938 513.457C522.465 516.024 521.089 524.551 513.685 524.938C508.967 524.938 504.474 519.984 503.012 518.205C502.588 520.515 501.19 526.778 498.076 529.787C494.093 533.829 487.995 532.238 489.223 525.191ZM515.56 521.937C518.899 520.488 518.117 517.266 514.316 515.939C511.526 515.048 507.522 516.38 505.375 517.262C507.72 519.877 512.1 523.588 515.56 521.937ZM492.225 529.127C493.118 529.715 494.906 529.452 496.587 527.829C498.797 525.695 500.026 521.206 500.565 518.702C497.335 519.454 492.168 521.507 491.469 525.672C491.303 526.668 491.178 528.444 492.225 529.127H492.225Z" fill="#D7A38F"/>
<path d="M535.378 433.823L513.37 440.834L522.478 477.188L547.832 469.111L535.378 433.823Z" fill="#61382D"/>
<path d="M586.101 483.717L533.284 500.543C530.949 501.287 528.448 500.954 526.331 499.619C524.213 498.283 522.653 496.054 521.993 493.421L592.413 470.986C593.073 473.618 592.779 476.438 591.595 478.825C590.412 481.213 588.435 482.972 586.101 483.717Z" fill="#D7A38F"/>
<path d="M521.99 493.421L592.414 470.986C592.414 470.986 591.194 464.972 580.498 465.479C568.031 466.087 550.514 466.067 542.34 453.329C537.026 455.658 534.038 461.706 534.435 468.018L521.23 472.225L521.99 493.421Z" fill="#F5CEA9"/>
<path d="M545.965 459.496C545.435 457.164 554.07 452.989 556.524 452.583C562.074 451.124 568.764 458.7 562.102 462.806C561.209 463.345 560.25 463.732 559.258 463.956C562.579 468.305 561.645 476.787 555.177 474.335C549.544 472.065 545.967 463.966 545.965 459.496ZM562.453 457.828C561.827 456.129 559.265 454.535 557.024 455.1C554.467 455.81 552.019 456.951 549.764 458.484C552.155 459.247 554.46 460.32 556.631 461.683C558.333 461.726 560.011 461.225 561.472 460.238C562.949 459.171 562.576 458.16 562.453 457.828ZM556.41 472.046C560.306 473.205 559.007 466.336 556.717 464.828C556.452 464.62 556.175 464.421 555.898 464.226C553.4 464.07 550.951 463.39 548.675 462.219C549.636 465.424 552.193 470.796 556.41 472.046Z" fill="#D7A38F"/>
<path fill-rule="evenodd" clip-rule="evenodd" d="M341.767 353.132C350.809 399.305 369.514 406.293 388.396 407.006L450.207 406.597C452.915 406.579 455.523 407.756 457.473 409.876C459.423 411.997 460.561 414.892 460.644 417.945L467.622 497.856H506.59L502.717 381.68C504.007 359.871 500.909 322.544 500.909 322.544L341.767 353.132Z" fill="#424435"/>
<path fill-rule="evenodd" clip-rule="evenodd" d="M511.398 330.554L537.082 436.738L504.53 451.013L498.633 369.574C498.494 367.648 497.917 365.795 496.957 364.195C495.998 362.594 494.688 361.299 493.156 360.436C491.623 359.572 489.918 359.168 488.207 359.264C486.496 359.36 484.835 359.951 483.386 360.982L414.106 410.229L373.457 410.877C350.803 411.701 329.513 399.405 322.519 375.095L319.351 336.871L363.389 343.084L479.322 309.815C486.014 307.781 493.148 308.821 499.161 312.709C505.174 316.596 509.575 323.013 511.398 330.554Z" fill="#666850"/>
<path d="M339.932 216.626L389.356 265.924L388.892 303.698L326.626 278.784L339.932 216.626Z" fill="#102325"/>
<path d="M413.684 314.748C413.884 310.886 413.438 307.016 412.37 303.34L393.162 236.357C391.234 229.018 393.395 222.659 392.52 214.865L391.064 200.977C390.663 197.825 387.287 196.451 386.268 199.191C386.732 194.103 382.733 192.119 381.044 194.94C380.332 190.476 375.459 190.585 374.858 194.549C374.127 190.565 369.353 190.649 369.131 194.305L368.749 200.418C368.415 199.846 367.961 199.377 367.426 199.052C366.892 198.727 366.295 198.557 365.688 198.558C365.404 198.58 365.129 198.682 364.887 198.853C364.646 199.023 364.445 199.258 364.303 199.537C364.162 199.816 364.083 200.13 364.074 200.451C364.065 200.772 364.126 201.091 364.252 201.379C365.263 203.645 366.089 206.009 366.72 208.444L368.065 217.793L373.253 226.7C374.479 228.806 375.223 231.222 375.417 233.731L381.747 315.221L413.684 314.748Z" fill="#553129"/>
<path d="M314.282 177.902C314.506 174.417 312.628 166.879 312.582 166.766H312.586C312.586 166.766 310.154 158.184 310.154 153.455C310.155 145.278 312.797 137.382 317.587 131.243C322.377 125.104 328.986 121.143 336.178 120.1C343.37 119.057 350.653 121.004 356.664 125.576C362.676 130.149 367.004 137.034 368.84 144.944L371.997 145.931L369.659 156.809C369.589 157.613 369.486 158.405 369.367 159.19H369.372C368.562 167.631 369.732 172.45 370.237 174.07C370.742 175.691 371.298 177.95 368.983 179.289C368.516 179.528 368.101 179.879 367.767 180.318C367.432 180.757 367.187 181.272 367.047 181.829L364.417 190.434C362.669 196.497 359.725 199.319 354.222 197.911C349.227 196.623 345.528 195.76 343.9 195.37C343.388 200.057 343.879 204.815 345.332 209.244L311.969 196.128C313.07 193.748 313.649 186.648 314.282 177.902Z" fill="#61382D"/>
<path d="M371.995 145.928C368.74 144.904 364.23 143.475 360.935 142.6L358.987 148.538C356.538 148.231 354.154 147.823 351.88 149.145C350.933 149.699 350.095 150.462 349.415 151.389C348.735 152.315 348.227 153.386 347.921 154.539L345.879 162.324C343.72 168.811 348.209 180.382 354.201 180.759H367.507L364.414 190.432C362.667 196.495 360.34 200.029 354.834 198.621L340.895 195.049C337.193 194.11 336.1 189.176 337.097 185.046C338.725 178.981 340.448 173.118 341.886 166.976C342.396 164.895 343.152 162.605 343.215 160.434C343.27 158.444 342.635 156.509 341.445 155.038C340.255 153.567 338.604 152.677 336.841 152.557C335.079 152.437 333.344 153.096 332.006 154.394C330.667 155.692 329.83 157.528 329.672 159.511L329.645 159.505C329.258 161.667 328.471 166.186 328.091 168.315C326.696 175.845 318.747 177.746 313.652 177.726C313.638 177.591 311.814 169.311 310.117 167.56C308.62 166.016 308.342 163.697 308.211 161.534C308.273 159.134 307.791 156.756 306.81 154.625C306.485 153.787 306.322 152.88 306.33 151.965C306.339 151.051 306.52 150.148 306.861 149.318C307.841 147.152 308.201 144.696 307.89 142.29C307.773 141.316 307.854 140.324 308.128 139.391C308.402 138.457 308.861 137.607 309.47 136.903C310.795 135.324 311.703 133.36 312.094 131.232C312.356 130.153 312.858 129.167 313.552 128.367C314.246 127.568 315.11 126.981 316.061 126.663C317.432 126.086 318.555 124.939 319.201 123.459C319.588 122.572 320.15 121.798 320.843 121.194C321.537 120.591 322.344 120.175 323.202 119.978C325.127 119.537 326.601 118.995 328.022 117.391C328.664 116.729 329.431 116.241 330.265 115.963C331.098 115.685 331.977 115.624 332.835 115.785C334.046 116.109 335.289 116.25 336.532 116.205C337.773 115.948 338.974 115.492 340.1 114.851C340.843 114.508 341.64 114.345 342.441 114.372C343.243 114.398 344.03 114.614 344.753 115.005C346.089 115.728 347.447 116.737 348.942 116.947C351.926 117.299 355.178 115.723 357.596 118.536C358.752 119.729 360.38 121.856 361.979 122.264L365.295 123.383C366.109 123.658 366.859 124.134 367.49 124.777C368.121 125.419 368.618 126.212 368.944 127.097L370.243 130.624C371.219 133.246 374.28 134.846 374.711 137.851C375.047 140.483 372.556 143.194 371.995 145.928Z" fill="#102325"/>
<path d="M345.661 159.802C345.688 159.681 345.737 159.567 345.803 159.467C345.87 159.367 345.953 159.283 346.049 159.219C346.144 159.155 346.25 159.114 346.36 159.096C346.47 159.079 346.581 159.086 346.689 159.118L364.753 164.365L366.208 158.216C366.272 157.979 366.414 157.78 366.606 157.659C366.797 157.539 367.023 157.508 367.235 157.571C367.446 157.635 367.628 157.789 367.741 158.001C367.853 158.213 367.889 158.466 367.839 158.707L364.498 172.827C364.437 173.068 364.295 173.272 364.103 173.396C363.91 173.52 363.682 173.553 363.467 173.488C363.253 173.424 363.07 173.267 362.957 173.051C362.845 172.836 362.812 172.579 362.866 172.336L364.317 166.206L346.268 160.963C346.16 160.932 346.059 160.877 345.971 160.802C345.882 160.727 345.807 160.633 345.751 160.525C345.694 160.417 345.657 160.297 345.642 160.173C345.627 160.049 345.633 159.923 345.661 159.802Z" fill="white"/>
<path d="M357.04 223.77C372.334 264.006 396.338 326.653 396.338 326.653C361.805 342.229 336.142 387.952 336.142 387.952L326.005 389.738C308.827 371.024 301.776 337.088 299.392 311.504L293.372 259.348C290.84 222.91 311.965 196.123 311.965 196.123L343.734 207.338C347.799 208.936 353.239 213.768 357.04 223.77Z" fill="#124A53"/>
<path d="M360.477 316.569L410.328 298.264C417.254 295.726 421.629 289.164 421.629 289.164L428.391 281.291C429.535 279.96 430.973 278.996 432.556 278.499C434.14 278.001 435.813 277.989 437.402 278.462L458.596 284.778C462.852 285.822 460.506 289.458 458.097 289.372C460.405 290.38 457.65 293.9 453.068 292.137C455 294.105 451.517 295.703 447.774 294.32C449.297 296.184 447.104 297.996 442.877 296.525C440.922 296.074 439.726 298.243 439.726 298.243L436.43 303.987C433.845 308.626 429.926 307.877 426.696 309.396C423.466 310.915 418.554 316.756 414.865 319.319L372.552 349C366.542 353.216 359.345 354.729 352.392 353.238C345.438 351.747 339.236 347.361 335.019 340.952L360.477 316.569Z" fill="#61382D"/>
<path d="M270.064 279.426L299.384 458.138L332.315 421.006C327.513 370.566 312.085 317.218 284.937 274.634L282.554 273.44C281.391 272.857 280.134 272.55 278.861 272.539C277.588 272.527 276.327 272.811 275.156 273.372C273.984 273.934 272.928 274.761 272.052 275.802C271.176 276.843 270.5 278.077 270.064 279.426Z" fill="#DBE7E9"/>
<path d="M455.077 457.976H298.733L331.664 420.273L333.753 419.583C361.336 410.519 389.916 405.889 418.646 405.83C446.816 405.716 455.099 405.83 455.099 405.83C460.207 405.83 463.82 408.676 463.82 418.717V448.685C463.186 455.114 460.194 457.986 455.077 457.976Z" fill="#BFD3D6"/>
<path d="M426.283 368.106L359.635 382.175C357.847 382.552 356.127 381.224 355.792 379.208L354.58 371.908C354.245 369.893 355.423 367.953 357.211 367.575L423.86 353.507C425.647 353.13 427.368 354.458 427.702 356.474L428.914 363.773C429.249 365.789 428.071 367.729 426.283 368.106Z" fill="#DBE7E9"/>
<path d="M257.996 541.35C259.276 541.353 260.531 540.957 261.624 540.206C262.717 539.455 263.605 538.378 264.189 537.094L299.317 460.281C299.736 459.379 299.873 458.344 299.706 457.342L282.249 352.223C281.436 347.274 274.98 347.345 274.334 352.401L251.099 532.362C250.963 533.476 251.039 534.611 251.322 535.689C251.605 536.768 252.09 537.766 252.743 538.617C253.395 539.468 254.202 540.151 255.108 540.623C256.014 541.094 256.998 541.342 257.996 541.35ZM278.311 352.104C278.51 352.089 278.707 352.161 278.861 352.306C279.014 352.451 279.113 352.656 279.135 352.88C279.037 353.619 296.977 458.012 296.508 458.627L261.373 535.46C260.963 536.364 260.281 537.074 259.449 537.463C258.618 537.852 257.691 537.896 256.833 537.586C255.976 537.276 255.244 536.633 254.768 535.771C254.293 534.909 254.104 533.884 254.236 532.88L277.471 352.919C277.478 352.803 277.506 352.69 277.553 352.587C277.599 352.483 277.663 352.391 277.741 352.315C277.819 352.239 277.909 352.182 278.007 352.145C278.105 352.109 278.208 352.095 278.311 352.104Z" fill="#124A53"/>
<path d="M451.366 542.779C451.588 542.778 451.807 542.726 452.01 542.624C452.212 542.522 452.393 542.373 452.542 542.188C452.691 542.002 452.803 541.783 452.872 541.546C452.941 541.308 452.966 541.057 452.943 540.808L439.257 392.18C439.561 375.47 424.539 367.409 410.898 370.827L288.881 395.861C288.468 395.946 288.101 396.212 287.862 396.602C287.623 396.991 287.531 397.472 287.606 397.938C287.681 398.404 287.917 398.817 288.263 399.087C288.608 399.357 289.034 399.461 289.448 399.376L411.498 374.331C415.192 373.422 419.018 373.426 422.711 374.343C431.337 376.596 436.088 382.963 436.088 392.271C436.208 392.364 449.69 541.048 449.79 541.177C449.831 541.616 450.014 542.024 450.305 542.319C450.596 542.615 450.974 542.779 451.366 542.779Z" fill="#124A53"/>
<path d="M442.907 457.691L442.913 461.263L297.699 461.575L297.693 458.003L442.907 457.691Z" fill="#124A53"/>
<path fill-rule="evenodd" clip-rule="evenodd" d="M554.393 218.024H557.897C558.149 218.024 558.397 218.091 558.621 218.221C558.846 218.35 559.039 218.538 559.186 218.768C559.333 218.999 559.43 219.266 559.468 219.546C559.505 219.827 559.483 220.114 559.403 220.383L530.871 316.401H445.432C445.433 314.134 446.232 311.959 447.654 310.355C449.076 308.752 451.005 307.851 453.016 307.851H524.929L550.495 221.186C550.768 220.265 551.292 219.464 551.991 218.896C552.691 218.329 553.531 218.023 554.393 218.024Z" fill="#0D2135"/>
<path fill-rule="evenodd" clip-rule="evenodd" d="M41.2284 439.395C40.2578 439.344 39.3086 439.728 38.5882 440.463C37.8678 441.198 37.435 442.225 37.3843 443.319V465.479C37.435 466.573 37.8678 467.6 38.5882 468.336C39.3086 469.071 40.2578 469.455 41.2284 469.403H144.469V439.395H41.2284Z" fill="#A0B4B7"/>
<path d="M43.7143 465.83H144.469V442.967H43.7143C42.8757 442.967 42.0714 443.343 41.4784 444.012C40.8854 444.68 40.5522 445.587 40.5522 446.533V462.265C40.5522 463.21 40.8854 464.117 41.4784 464.786C42.0714 465.455 42.8757 465.83 43.7143 465.83Z" fill="#FDFAF5"/>
<path fill-rule="evenodd" clip-rule="evenodd" d="M77.7712 448.683C76.1127 448.683 74.7686 449.897 74.7686 451.393V466.693C74.7686 468.19 76.1127 469.403 77.7712 469.403H158.409V448.683H77.7712Z" fill="#666850"/>
<path d="M79.0624 467.259H158.409V450.826H79.0624C78.4278 450.826 77.8192 451.111 77.3705 451.617C76.9218 452.123 76.6697 452.809 76.6697 453.524V464.561C76.6697 464.916 76.7316 465.267 76.8518 465.594C76.9721 465.921 77.1483 466.219 77.3705 466.469C77.5927 466.72 77.8565 466.918 78.1468 467.054C78.4371 467.19 78.7482 467.259 79.0624 467.259Z" fill="#FDFAF5"/>
<path d="M44.354 416.533H124.192C125.592 416.533 126.727 417.812 126.727 419.39V436.538C126.727 438.116 125.592 439.395 124.192 439.395H44.354C42.9544 439.395 41.8198 438.116 41.8198 436.538V419.39C41.8198 417.812 42.9544 416.533 44.354 416.533Z" fill="#0D2135"/>
<path d="M67.1659 419.39H82.3728V436.537H67.1659V419.39Z" fill="#B1C585"/>
<path d="M62.0959 436.538L53.225 419.39L44.3548 436.538H62.0959Z" fill="#F4B7A8"/>
<path d="M88.7087 427.965C88.7087 430.238 89.5098 432.419 90.9357 434.027C92.3616 435.635 94.2956 436.538 96.3121 436.538C106.398 436.086 106.395 419.84 96.3121 419.39C94.2955 419.391 92.3616 420.294 90.9357 421.902C89.5098 423.51 88.7087 425.691 88.7087 427.965Z" fill="#F8C77E"/>
<path d="M114.796 427.965L109.36 421.83C109.122 421.562 108.989 421.198 108.989 420.819C108.989 420.441 109.122 420.077 109.36 419.809C109.598 419.541 109.92 419.391 110.256 419.391C110.592 419.391 110.914 419.541 111.152 419.809L116.593 425.943L122.029 419.809C122.147 419.677 122.286 419.571 122.44 419.5C122.594 419.428 122.759 419.391 122.925 419.391C123.091 419.391 123.256 419.428 123.41 419.5C123.563 419.571 123.703 419.677 123.821 419.809C123.938 419.942 124.032 420.099 124.095 420.273C124.159 420.446 124.192 420.632 124.192 420.819C124.192 421.007 124.159 421.193 124.095 421.366C124.032 421.539 123.938 421.697 123.821 421.83L118.381 427.965L123.821 434.099C124.058 434.367 124.192 434.73 124.192 435.109C124.192 435.488 124.058 435.851 123.821 436.119C123.583 436.387 123.261 436.537 122.925 436.537C122.589 436.537 122.267 436.387 122.029 436.119L116.593 429.989L111.152 436.119C110.914 436.387 110.592 436.537 110.256 436.537C109.92 436.537 109.598 436.387 109.36 436.119C109.122 435.851 108.989 435.488 108.989 435.109C108.989 434.73 109.122 434.367 109.36 434.099L114.796 427.965Z" fill="#697171"/>
<path d="M14.574 497.982C14.5936 490.41 17.2698 483.154 22.0181 477.799C26.7664 472.445 33.2009 469.426 39.9163 469.403H166.646C173.362 469.425 179.797 472.443 184.546 477.798C189.295 483.153 191.972 490.409 191.991 497.982V505.127H14.574V497.982Z" fill="#A8BAAC"/>
<path d="M191.991 505.127V512.271C191.972 519.844 189.295 527.1 184.546 532.455C179.797 537.809 173.362 540.827 166.646 540.849H39.9164C33.2009 540.826 26.7664 537.808 22.0181 532.453C17.2699 527.099 14.5937 519.843 14.574 512.271V505.127H191.991Z" fill="#FCE2BA"/>
</g>
<defs>
<clipPath id="clip0_3_5">
<rect width="633" height="571" fill="white" transform="matrix(-1 0 0 1 633 0)"/>
</clipPath>
</defs>
</svg>
